<?xml version="1.0" encoding="UTF-8"?>
<!DOCTYPE svg PUBLIC "-//W3C//DTD SVG 1.1//EN" "http://www.w3.org/Graphics/SVG/1.1/DTD/svg11.dtd">
<svg version="1.1" xmlns="http://www.w3.org/2000/svg" xmlns:xlink="http://www.w3.org/1999/xlink" x="0" y="0" width="368.033" height="294.527" viewBox="0, 0, 368.033, 294.527">
  <g id="Layer_x0020_1">
    <path d="M118.385,82.93 C137.462,82.93 153.591,99.994 154.384,121.027 C155.15,142.059 140.325,159.124 121.22,159.124 C102.143,159.124 86.014,142.059 85.22,121.027 C84.455,99.994 99.28,82.93 118.385,82.93 z" fill="#000000" id="path23330"/>
    <path d="M118.782,94.041 C132.331,94.041 143.755,106.117 144.293,121.027 C144.86,135.937 134.344,148.04 120.823,148.04 C107.273,148.04 95.85,135.937 95.311,121.027 C94.744,106.117 105.261,94.041 118.782,94.041 z" fill="#FFFFFF" id="path23328"/>
    <path d="M66.257,49.453 L136.782,56.114 L137.178,56.823 C140.807,63.456 144.152,70.372 147.411,77.232 L82.499,70.968 C78.531,70.599 75.299,73.264 75.299,77.317 L75.299,148.777 C75.299,152.831 78.531,156.629 82.499,157.196 L153.789,167.458 C157.758,168.024 160.989,165.161 160.989,161.108 L160.989,106.627 C162.917,110.822 164.816,115.046 166.828,119.156 C168.132,121.82 169.663,124.91 171.534,127.235 C171.987,127.801 172.469,128.34 173.065,128.765 C175.19,130.381 177.968,130.268 180.548,129.757 L180.548,177.719 C180.548,183.501 175.814,187.555 170.031,186.761 L66.257,172.163 C60.474,171.341 55.74,165.955 55.74,160.173 L55.74,58.467 C55.74,52.713 60.474,48.914 66.257,49.453 z" fill="#000000" id="path23326"/>
    <path d="M52.877,118.901 L52.877,58.467 C52.877,50.927 59.17,45.91 66.512,46.59 L135.024,53.053 C133.834,51.154 132.473,49.34 130.857,48.007 C128.703,46.25 126.095,45.371 123.402,44.748 C118.612,43.614 113.254,43.16 108.351,42.735 C94.829,41.601 81.195,40.893 67.617,40.241 C53.558,39.532 39.498,38.937 25.438,38.37 C19.372,38.115 13.306,37.916 7.24,37.604 C6.135,37.548 5.029,37.491 3.952,37.378 C3.215,37.293 2.506,37.094 1.94,36.754 C1.288,37.689 0.777,38.795 0.437,40.07 C-0.186,42.48 -0.186,45.541 0.721,49.425 C1.599,53.336 3.414,58.07 10.784,70.032 C18.153,81.994 31.108,101.128 38.874,110.595 C46.641,120.091 49.249,119.893 52.339,119.043 C52.509,119.014 52.679,118.957 52.877,118.901 z" fill="#000000" id="path23324"/>
    <path d="M25.552,35.478 C46.5,36.329 86.893,38.03 108.606,39.872 C130.29,41.743 133.295,43.727 139.701,55.434 C146.107,67.141 155.915,88.542 162.208,102.318 C168.501,116.123 171.307,122.331 173.773,125.42 C176.239,128.538 178.394,128.538 206.088,118.022 C233.81,107.534 287.044,86.53 318.281,73.972 C349.49,61.443 358.703,57.333 363.408,54.98 C368.085,52.628 368.312,52.033 367.887,45.881 C367.49,39.73 366.498,28.023 364.712,21.022 C362.898,14.02 360.29,11.724 356.151,9.088 C352.013,6.424 346.287,3.419 342.29,1.888 C338.293,0.329 335.997,0.244 321.456,0.131 C306.886,0.018 280.099,-0.067 265.246,0.074 C250.392,0.244 247.501,0.641 207.845,5.772 C168.189,10.931 91.796,20.824 52.509,25.983 C13.193,31.141 11.01,31.538 8.714,32.19 C6.418,32.842 4.009,33.721 3.555,34.175 C3.102,34.628 4.604,34.628 25.552,35.478 z" fill="#000000" id="path23322"/>
    <path d="M360.8,59.431 C357.852,60.763 354.876,62.039 351.9,63.314 C341.128,67.906 330.215,72.272 319.358,76.665 C301.869,83.667 284.351,90.611 266.805,97.528 C246.963,105.351 227.064,113.147 207.108,120.715 C202.233,122.586 197.3,124.428 192.368,126.186 C189.42,127.206 186.444,128.255 183.411,129.077 L183.411,177.719 C183.411,179.249 183.156,180.695 182.702,181.999 C185.48,180.809 188.655,179.306 192.453,177.379 C203.281,171.851 219.184,162.752 245.829,148.863 C272.474,134.945 309.891,116.265 330.215,105.266 C350.567,94.268 353.884,90.952 356.237,86.898 C358.589,82.845 359.978,78.054 360.517,71.62 C360.829,67.963 360.885,63.796 360.8,59.431 z" fill="#000000" id="path23320"/>
    <path d="M258.103,163.546 C260.115,157.026 261.136,150.422 261.873,143.789 C256.969,146.311 252.065,148.863 247.161,151.414 C236.248,157.111 225.391,162.922 214.591,168.79 C208.327,172.191 202.091,175.621 195.77,178.909 C198.434,183.275 201.892,187.385 206.031,190.304 C212.069,194.613 219.524,196.399 226.44,196.002 C233.328,195.605 239.678,192.997 245.177,187.243 C250.676,181.517 255.325,172.617 258.103,163.546 z" fill="#000000" id="path23318"/>
    <path d="M232.761,170.746 C235.851,170.746 238.374,173.268 238.374,176.387 C238.374,179.476 235.851,181.999 232.761,181.999 C229.643,181.999 227.12,179.476 227.12,176.387 C227.12,173.268 229.643,170.746 232.761,170.746 z" fill="#FFFFFF" id="path23316"/>
    <path d="M249.032,187.271 L249.032,251.305 C234.859,255.217 219.807,254.99 204.018,251.305 L204.018,192.402 C204.132,192.487 204.245,192.572 204.359,192.657 C210.765,197.193 218.787,199.318 226.61,198.893 C234.717,198.411 241.605,195.152 247.246,189.256 C247.87,188.604 248.465,187.952 249.032,187.271 z" fill="#000000" id="path23314"/>
    <path d="M192.482,252.212 C215.073,261.283 238.657,259.894 262.836,252.212 L262.836,280.757 C237.75,292.293 214.365,291.868 192.482,280.757 z" fill="#000000" id="path23312"/>
    <path d="M286.619,218.962 C282.338,221.145 277.69,223.554 272.786,226.105 C274.317,226.162 275.876,225.907 277.321,225.453 C280.269,224.575 282.962,222.789 285.116,220.606 C285.627,220.068 286.137,219.529 286.619,218.962 z" fill="#000000" id="path23310"/>
    <path d="M259.463,232.965 L251.895,236.877 L251.895,246.174 C253.34,246.855 254.588,247.45 255.665,247.932 C259.973,249.859 260.739,249.746 271.142,244.672 C281.516,239.598 301.585,229.564 315.532,222.619 C329.478,215.702 337.33,211.904 340.873,209.863 C344.416,207.851 343.679,207.596 339.087,206.887 C334.467,206.15 326.02,204.959 321.484,204.364 C317.431,203.854 316.467,203.854 307.538,208.276 C305.667,211.054 303.995,213.973 302.351,216.638 C297.362,224.858 292.089,232.398 282.735,236.027 C276.613,238.379 269.81,238.578 263.8,235.743 C262.213,234.978 260.767,234.042 259.463,232.965 z" fill="#000000" id="path23308"/>
    <path d="M343.141,229.649 C343.339,225.68 343.481,218.792 343.623,211.564 C343.197,211.876 342.744,212.131 342.29,212.386 C339.427,214.03 336.366,215.504 333.39,216.978 C327.862,219.728 322.335,222.449 316.807,225.198 C302.011,232.54 287.242,240.023 272.389,247.252 C270.235,248.329 267.967,249.463 265.699,250.398 L265.699,252.751 L265.699,262.785 L265.699,267.292 C269.271,268.624 272.531,268.851 274.742,268.738 C277.916,268.596 278.937,267.746 289.822,262.133 C300.735,256.492 321.541,246.089 332.086,240.505 C342.63,234.893 342.914,234.099 343.141,229.649 z" fill="#000000" id="path23306"/>
    <path d="M291.182,172.503 L361.367,181.035 C363.181,181.262 364.684,182.963 364.684,184.805 L364.684,291.5 C364.684,293.342 363.153,294.901 361.367,294.448 L291.182,276.306 C289.397,275.853 287.866,274.379 287.866,272.536 L287.866,266.385 C288.971,265.818 290.049,265.251 291.154,264.684 C305.214,257.428 319.443,250.455 333.418,243.056 C336.111,241.611 339.059,240.108 341.525,238.351 C343.197,237.16 344.615,235.828 345.38,233.872 C345.862,232.54 345.947,231.179 346.032,229.79 C346.259,225.142 346.344,220.408 346.429,215.731 C346.486,212.84 346.911,209.41 345.692,206.773 C344.728,204.619 341.61,204.364 339.512,204.024 C333.645,203.117 327.72,202.266 321.824,201.529 C320.747,201.388 319.642,201.246 318.536,201.274 C316.439,201.303 314.54,201.926 312.64,202.72 C312.215,202.89 311.79,203.06 311.393,203.259 C312.243,202.295 313.151,201.388 314.114,200.537 C315.787,199.12 317.601,197.958 319.642,197.107 C322.476,195.889 324.262,195.917 327.239,195.917 C331.916,195.917 334.495,190.956 332.341,187.073 C331.292,185.202 329.393,184.153 327.239,184.153 L325.736,184.153 C310.316,184.153 302.719,194.301 295.321,206.207 C293.819,208.644 292.26,211.195 290.615,213.662 L287.866,215.051 L287.866,175.451 C287.866,173.609 289.368,172.276 291.182,172.503 z" fill="#000000" id="path23304"/>
    <path d="M348.696,191.013 C350.964,191.013 352.835,193.167 352.835,195.804 C352.835,198.468 350.964,200.622 348.696,200.622 C346.429,200.622 344.586,198.468 344.586,195.804 C344.586,193.167 346.429,191.013 348.696,191.013 z" fill="#FFFFFF" id="path23302"/>
    <path d="M298.722,184.607 C300.99,184.323 303.059,186.251 303.371,188.887 C303.683,191.523 302.096,193.876 299.828,194.131 C297.56,194.386 295.491,192.459 295.179,189.851 C294.867,187.215 296.455,184.862 298.722,184.607 z" fill="#FFFFFF" id="path23300"/>
    <path d="M299.318,262.445 C301.585,262.19 303.655,264.117 303.966,266.754 C304.278,269.361 302.691,271.714 300.423,271.969 C298.156,272.253 296.086,270.325 295.774,267.689 C295.463,265.053 297.05,262.7 299.318,262.445 z" fill="#FFFFFF" id="path23298"/>
    <path d="M348.668,272.933 C350.936,272.678 353.005,274.605 353.317,277.242 C353.629,279.878 352.041,282.231 349.774,282.486 C347.506,282.741 345.437,280.813 345.125,278.177 C344.813,275.541 346.4,273.217 348.668,272.933 z" fill="#FFFFFF" id="path23296"/>
    <path d="M313.973,117.087 C316.354,121.565 317.006,126.271 314.114,132.592 C304.618,153.199 260.682,176.131 259.407,209.183 C258.556,231.718 276.754,233.249 287.157,222.619 C299.204,210.317 303.796,187.045 325.736,187.045 L327.239,187.045 C331.207,187.045 331.207,193.054 327.239,193.054 C324.12,193.054 321.966,192.997 318.508,194.443 C301.614,201.586 300.026,226.247 281.715,233.334 C270.688,237.586 259.407,233.334 255.268,222.052 C252.263,213.888 253.114,203.514 256.232,194.811 C267.513,163.404 311.195,140.472 309.976,124.031 C309.891,122.557 309.381,121.168 308.672,119.836 L308.785,119.751 C310.514,118.872 312.243,117.994 313.973,117.087 z" fill="#000000" id="path22667"/>
    <path d="M125.046,104.076 C132.501,104.076 138.539,111.191 138.539,119.978 C138.539,128.765 132.501,135.88 125.046,135.88 C117.62,135.88 111.582,128.765 111.582,119.978 C111.582,111.191 117.62,104.076 125.046,104.076 z" fill="#000000" id="path22669"/>
  </g>
</svg>
